<svg xmlns="http://www.w3.org/2000/svg" width="48" height="48" viewBox="0 0 48 48">
  <g id="Grupo_4527" data-name="Grupo 4527" transform="translate(-198 -324)">
    <circle id="Elipse_222" data-name="Elipse 222" cx="24" cy="24" r="24" transform="translate(198 324)" fill="#f5f5f5"/>
    <g id="Icon_Auto_Multicar_64px" data-name="Icon/Auto/Multicar/64px" transform="translate(210 337)">
      <g id="Combined_Shape" data-name="Combined Shape">
        <path id="Combined_Shape-2" data-name="Combined Shape" d="M4.5,21.446a.861.861,0,0,1-.852-.868V4.564A.861.861,0,0,1,4.5,3.7H23.148A.861.861,0,0,1,24,4.564V20.578a.861.861,0,0,1-.852.868Zm.095-.965H23.054V4.66H4.6Zm13.72-1.96a.939.939,0,0,1-1.005-.836v-1.26H10.292v1.26a.841.841,0,0,1-.881.836H7.7a.88.88,0,0,1-.928-.836V15.811h0v-3.28a1.447,1.447,0,0,1,.5-1.062l.969-.858L9.154,7.7a1.617,1.617,0,0,1,1.468-1.153H17a1.6,1.6,0,0,1,1.444,1.1l1.018,2.924.935.881a1.415,1.415,0,0,1,.432,1.071v5.153a.785.785,0,0,1-.8.836Zm-.059-.975a.231.231,0,0,0,.059.01h1.565V12.531a.485.485,0,0,0-.119-.355l-.774-.729H8.745l-.845.748a.494.494,0,0,0-.179.336v2.756h0v2.269H9.345V16.424H8.4V15.46H19.2v.965H18.26Zm.166-7.064-.871-2.5A.657.657,0,0,0,17,7.516h-6.38A.667.667,0,0,0,10.055,8l-.776,2.483ZM.852,17.75A.861.861,0,0,1,0,16.882V.868A.861.861,0,0,1,.852,0H19.5a.861.861,0,0,1,.852.868v2.1H19.4v-2H.946V16.786H2.524v.965Z" fill="none"/>
        <path id="Combined_Shape-3" data-name="Combined Shape" d="M4.5,21.446a.861.861,0,0,1-.852-.868V4.564A.861.861,0,0,1,4.5,3.7H23.148A.861.861,0,0,1,24,4.564V20.578a.861.861,0,0,1-.852.868Zm.095-.965H23.054V4.66H4.6Zm13.72-1.96a.939.939,0,0,1-1.005-.836v-1.26H10.292v1.26a.841.841,0,0,1-.881.836H7.7a.88.88,0,0,1-.928-.836V15.811h0v-3.28a1.447,1.447,0,0,1,.5-1.062l.969-.858L9.154,7.7a1.617,1.617,0,0,1,1.468-1.153H17a1.6,1.6,0,0,1,1.444,1.1l1.018,2.924.935.881a1.415,1.415,0,0,1,.432,1.071v5.153a.785.785,0,0,1-.8.836Zm-.059-.975a.231.231,0,0,0,.059.01h1.565V12.531a.485.485,0,0,0-.119-.355l-.774-.729H8.745l-.845.748a.494.494,0,0,0-.179.336v2.756h0v2.269H9.345V16.424H8.4V15.46H19.2v.965H18.26Zm.166-7.064-.871-2.5A.657.657,0,0,0,17,7.516h-6.38A.667.667,0,0,0,10.055,8l-.776,2.483ZM.852,17.75A.861.861,0,0,1,0,16.882V.868A.861.861,0,0,1,.852,0H19.5a.861.861,0,0,1,.852.868v2.1H19.4v-2H.946V16.786H2.524v.965Z" fill="none"/>
        <path id="Combined_Shape-4" data-name="Combined Shape" d="M4.5,21.446a.861.861,0,0,1-.852-.868V4.564A.861.861,0,0,1,4.5,3.7H23.148A.861.861,0,0,1,24,4.564V20.578a.861.861,0,0,1-.852.868Zm.095-.965H23.054V4.66H4.6Zm13.72-1.96a.939.939,0,0,1-1.005-.836v-1.26H10.292v1.26a.841.841,0,0,1-.881.836H7.7a.88.88,0,0,1-.928-.836V15.811h0v-3.28a1.447,1.447,0,0,1,.5-1.062l.969-.858L9.154,7.7a1.617,1.617,0,0,1,1.468-1.153H17a1.6,1.6,0,0,1,1.444,1.1l1.018,2.924.935.881a1.415,1.415,0,0,1,.432,1.071v5.153a.785.785,0,0,1-.8.836Zm-.059-.975a.231.231,0,0,0,.059.01h1.565V12.531a.485.485,0,0,0-.119-.355l-.774-.729H8.745l-.845.748a.494.494,0,0,0-.179.336v2.756h0v2.269H9.345V16.424H8.4V15.46H19.2v.965H18.26Zm.166-7.064-.871-2.5A.657.657,0,0,0,17,7.516h-6.38A.667.667,0,0,0,10.055,8l-.776,2.483ZM.852,17.75A.861.861,0,0,1,0,16.882V.868A.861.861,0,0,1,.852,0H19.5a.861.861,0,0,1,.852.868v2.1H19.4v-2H.946V16.786H2.524v.965Z" fill="none"/>
        <path id="Combined_Shape-5" data-name="Combined Shape" d="M4.5,21.446a.861.861,0,0,1-.852-.868V4.564A.861.861,0,0,1,4.5,3.7H23.148A.861.861,0,0,1,24,4.564V20.578a.861.861,0,0,1-.852.868Zm.095-.965H23.054V4.66H4.6Zm13.72-1.96a.939.939,0,0,1-1.005-.836v-1.26H10.292v1.26a.841.841,0,0,1-.881.836H7.7a.88.88,0,0,1-.928-.836V15.811h0v-3.28a1.447,1.447,0,0,1,.5-1.062l.969-.858L9.154,7.7a1.617,1.617,0,0,1,1.468-1.153H17a1.6,1.6,0,0,1,1.444,1.1l1.018,2.924.935.881a1.415,1.415,0,0,1,.432,1.071v5.153a.785.785,0,0,1-.8.836Zm-.059-.975a.231.231,0,0,0,.059.01h1.565V12.531a.485.485,0,0,0-.119-.355l-.774-.729H8.745l-.845.748a.494.494,0,0,0-.179.336v2.756h0v2.269H9.345V16.424H8.4V15.46H19.2v.965H18.26Zm.166-7.064-.871-2.5A.657.657,0,0,0,17,7.516h-6.38A.667.667,0,0,0,10.055,8l-.776,2.483ZM.852,17.75A.861.861,0,0,1,0,16.882V.868A.861.861,0,0,1,.852,0H19.5a.861.861,0,0,1,.852.868v2.1H19.4v-2H.946V16.786H2.524v.965Z" fill="none"/>
        <path id="Combined_Shape-6" data-name="Combined Shape" d="M4.5,21.446a.861.861,0,0,1-.852-.868V4.564A.861.861,0,0,1,4.5,3.7H23.148A.861.861,0,0,1,24,4.564V20.578a.861.861,0,0,1-.852.868Zm.095-.965H23.054V4.66H4.6Zm13.72-1.96a.939.939,0,0,1-1.005-.836v-1.26H10.292v1.26a.841.841,0,0,1-.881.836H7.7a.88.88,0,0,1-.928-.836V15.811h0v-3.28a1.447,1.447,0,0,1,.5-1.062l.969-.858L9.154,7.7a1.617,1.617,0,0,1,1.468-1.153H17a1.6,1.6,0,0,1,1.444,1.1l1.018,2.924.935.881a1.415,1.415,0,0,1,.432,1.071v5.153a.785.785,0,0,1-.8.836Zm-.059-.975a.231.231,0,0,0,.059.01h1.565V12.531a.485.485,0,0,0-.119-.355l-.774-.729H8.745l-.845.748a.494.494,0,0,0-.179.336v2.756h0v2.269H9.345V16.424H8.4V15.46H19.2v.965H18.26Zm.166-7.064-.871-2.5A.657.657,0,0,0,17,7.516h-6.38A.667.667,0,0,0,10.055,8l-.776,2.483ZM.852,17.75A.861.861,0,0,1,0,16.882V.868A.861.861,0,0,1,.852,0H19.5a.861.861,0,0,1,.852.868v2.1H19.4v-2H.946V16.786H2.524v.965Z" fill="none"/>
        <path id="Combined_Shape-7" data-name="Combined Shape" d="M4.5,21.446a.861.861,0,0,1-.852-.868V4.564A.861.861,0,0,1,4.5,3.7H23.148A.861.861,0,0,1,24,4.564V20.578a.861.861,0,0,1-.852.868Zm.095-.965H23.054V4.66H4.6Zm13.72-1.96a.939.939,0,0,1-1.005-.836v-1.26H10.292v1.26a.841.841,0,0,1-.881.836H7.7a.88.88,0,0,1-.928-.836V15.811h0v-3.28a1.447,1.447,0,0,1,.5-1.062l.969-.858L9.154,7.7a1.617,1.617,0,0,1,1.468-1.153H17a1.6,1.6,0,0,1,1.444,1.1l1.018,2.924.935.881a1.415,1.415,0,0,1,.432,1.071v5.153a.785.785,0,0,1-.8.836Zm-.059-.975a.231.231,0,0,0,.059.01h1.565V12.531a.485.485,0,0,0-.119-.355l-.774-.729H8.745l-.845.748a.494.494,0,0,0-.179.336v2.756h0v2.269H9.345V16.424H8.4V15.46H19.2v.965H18.26Zm.166-7.064-.871-2.5A.657.657,0,0,0,17,7.516h-6.38A.667.667,0,0,0,10.055,8l-.776,2.483ZM.852,17.75A.861.861,0,0,1,0,16.882V.868A.861.861,0,0,1,.852,0H19.5a.861.861,0,0,1,.852.868v2.1H19.4v-2H.946V16.786H2.524v.965Z" fill="#1a1446"/>
      </g>
    </g>
  </g>
</svg>
