<svg xmlns="http://www.w3.org/2000/svg" width="48" height="48" viewBox="0 0 48 48">
  <g id="Grupo_4527" data-name="Grupo 4527" transform="translate(-198 -324)">
    <circle id="Elipse_222" data-name="Elipse 222" cx="24" cy="24" r="24" transform="translate(198 324)" fill="#f5f5f5"/>
    <g id="Docuemento_ID" data-name="Docuemento ID" transform="translate(222 348.227)">
      <g id="ID" transform="translate(-12 -8.226)">
        <path id="Trazado_3608" data-name="Trazado 3608" d="M12.52,11.947v-1.2H21.1v1.2Zm0-3.038v-1.2H21.1v1.2Zm0-3.037v-1.2H21.1v1.2ZM2.936,12.247a3.5,3.5,0,0,1,7.007,0H9.016a2.571,2.571,0,1,0-5.143,0H2.936ZM5.443,5.973a1.1,1.1,0,1,0,1.1-1.1A1.112,1.112,0,0,0,5.443,5.973Zm3.1,0a2,2,0,1,1-2-2A2.007,2.007,0,0,1,8.544,5.973ZM21.632,0A2.4,2.4,0,0,1,24,2.368V14.084a2.375,2.375,0,0,1-2.368,2.368H0v-1.2H21.595a1.126,1.126,0,0,0,1.136-1.136V2.368a1.126,1.126,0,0,0-1.136-1.136H2.336A1.126,1.126,0,0,0,1.2,2.368v11.78H0V2.368A2.376,2.376,0,0,1,2.368,0Z" fill="#1a1446"/>
      </g>
    </g>
  </g>
</svg>
