<svg xmlns="http://www.w3.org/2000/svg" width="109.162" height="55.444" viewBox="0 0 109.162 55.444">
  <g id="logo" transform="translate(-0.726 0)">
    <g id="Logo_Principal" data-name="Logo/Principal">
      <path id="Fill_1" data-name="Fill 1" d="M4.365.759C4.3.487,5.175.328,5.174.284c0-.253.038-.239-.162-.271L.218.011c-.132,0-.01.683.1.688.455.019.957-.029,1.15.334L3.448,4.759c.9,1.7,1.735,3.412,1.646,3.84-.126.617-1.236,3.4-2.756,3.766-.6.144-1.9-.353-1.816-.095A4.928,4.928,0,0,1,0,14.73a3.464,3.464,0,0,0,2.683-.4,4.017,4.017,0,0,0,1.31-1.782L8.715,2.3A4.249,4.249,0,0,1,9.47.952,2.816,2.816,0,0,1,10.525.4l.108-.4L7.07.006c-.17.02-.033.412,0,.4a1.394,1.394,0,0,1,.683.14c.524.552.542.646.239,1.626L6.487,5.55A38.852,38.852,0,0,1,4.365.759" transform="translate(93.689 20.533)" fill="#1e1045"/>
      <path id="Fill_3" data-name="Fill 3" d="M3.947,3.891l2.268,0c.132,0,.222,0,.272-.056a.891.891,0,0,0,.019-.508c-.02-.06-.064-.106-.11-.106l-.781,0H4.253c-.479,0-.315-.213-.316-.865L3.929.284c0-.341-.184-.387-.5-.074L.108,3.509c-.171.171-.127.378.046.379l1.245,0c.1,0,.1.225.1.361V9.3c0,2.838,3.765,3.245,5.207,1.427.2-.25.532-.878.077-.57-1.584,1.074-2.831.528-2.832-1.375Z" transform="translate(87.594 17.306)" fill="#1e1045"/>
      <path id="Fill_5" data-name="Fill 5" d="M.016.811C.029,1.148,1.559.38,1.559,2.686v4.22c0,1.48-1.46,1.214-1.45,1.44.005.128-.014.347.066.347l5.217,0c.039,0,.088-.418,0-.425C4.081,8.151,4.1,7.436,4.1,6.6V3.38c0-.207.35-.683,1.1-.918,1.936-.608,2.03.719,2.428.708.318-.01.558-1.73.534-1.973A1.437,1.437,0,0,0,5.991.183,5.586,5.586,0,0,0,4.067,2.614c-.013.024.112-2.573.059-2.57L0,.277Z" transform="translate(79.029 20.109)" fill="#1e1045"/>
      <path id="Fill_7" data-name="Fill 7" d="M4.533,9.085h0a5.09,5.09,0,0,1-1.719-.3,4.234,4.234,0,0,1-1.435-.843A3.871,3.871,0,0,1,.426,6.6,5.026,5.026,0,0,1,0,4.733,4.607,4.607,0,0,1,2.788.384,4.7,4.7,0,0,1,4.64,0,4.3,4.3,0,0,1,8.878,3.469c0,.023.007.048.011.073.014.085.029.172-.017.226a.2.2,0,0,1-.162.053H2.61A5.265,5.265,0,0,0,2.9,5.76,3,3,0,0,0,5.561,7.945,4.76,4.76,0,0,0,8.819,6.121a.093.093,0,0,1,.064-.035.042.042,0,0,1,.037.021c.029.047.007.155-.06.289A4.813,4.813,0,0,1,4.533,9.085ZM4.52.7c-.032,0-.064,0-.1,0C2.851.848,2.588,2.977,2.6,3.293c0,.014,0,.021,0,.021L6.155,3.3c.14,0,.216-.12.216-.336C6.369,2.289,5.586.7,4.52.7Z" transform="translate(69.857 20.073)" fill="#1e1045"/>
      <path id="Fill_9" data-name="Fill 9" d="M4.875,14.255h0c-.319,0-.634-.012-.936-.037a.893.893,0,0,1-.159-.037,7.988,7.988,0,0,0-2.318-.236.157.157,0,0,1-.119-.045.361.361,0,0,1-.041-.26c0-.025,0-.049,0-.069l.039-12.3c0-.127-.471-.316-.85-.468A1.514,1.514,0,0,1,.019.58L0,.253,3.768,0,3.709,6.18a.439.439,0,0,0,.062.3.1.1,0,0,0,.075.03,1.369,1.369,0,0,0,.528-.3c.156-.111.332-.236.538-.364a3.869,3.869,0,0,1,3.073-.551A3.711,3.711,0,0,1,10.37,7.173a4.979,4.979,0,0,1,.375,3.9,4.21,4.21,0,0,1-2.513,2.658A9.775,9.775,0,0,1,4.875,14.255ZM5.886,6.4a2.816,2.816,0,0,0-.307.017c-.385.043-1.69.566-1.771,1.018a2.415,2.415,0,0,0-.028.417V11.8c0,1.147.247,1.769,1.552,1.769h.033c1.991-.015,3.025-1.972,3.017-3.9C8.375,8.046,7.6,6.4,5.886,6.4Z" transform="translate(57.896 14.958)" fill="#1e1045"/>
      <path id="Fill_11" data-name="Fill 11" d="M2.968,1.495a1.525,1.525,0,0,0-.2-.756A1.46,1.46,0,0,0,1.5,0a1.485,1.485,0,0,0-1.3.756A1.479,1.479,0,0,0,0,1.468a1.373,1.373,0,0,0,.2.716,1.46,1.46,0,0,0,.531.526,1.54,1.54,0,0,0,.766.2A1.48,1.48,0,0,0,2.271,2.7a1.456,1.456,0,0,0,.509-.526,1.331,1.331,0,0,0,.188-.676" transform="translate(53.526 15.008)" fill="#1e1045"/>
      <path id="Fill_13" data-name="Fill 13" d="M1.554,6.435c-.01.3-.017,1.135-.32,1.352-.266.191-1.083.485-1.081.524.011.23.151.272.353.271L4.385,8.56a2.306,2.306,0,0,0,.72-.011c.219-.076.111-.388-.125-.387-1.1,0-.842-1.038-.866-1.654C3.941,2.358,4.031.785,4.032.052A19.8,19.8,0,0,0,.071.333C-.055.352.01.823.085.818a1.471,1.471,0,0,1,1.591,1.7Z" transform="translate(52.297 20.172)" fill="#1e1045"/>
      <path id="Fill_15" data-name="Fill 15" d="M1.785,10.6c0,.219,0,.417-.017.593C1.683,12.294.1,12.256.115,12.326l.121.411,9.022-.006c.5,0,.562.025.676-.085a.65.65,0,0,0,.135-.4c.04-.928.187-1.871.26-2.8.006-.076-.071-.089-.171-.092-.221,0-.319.347-.4.5a3.881,3.881,0,0,1-1.788,1.984,3.742,3.742,0,0,1-2.792.009,1.231,1.231,0,0,1-.517-.681,3.511,3.511,0,0,1-.147-1.108V2.02a3.962,3.962,0,0,1,.038-.494,1.162,1.162,0,0,1,.13-.434A.862.862,0,0,1,5.04.758C5.134.711,5.992.323,6.362.13c.155-.081.127-.141.051-.115L.376,0C.318,0,.1,0,.03.011S.015.246.076.266c.685.241,1.587.4,1.641,1.277.009.173.014.369.015.585Z" transform="translate(41.818 16.006)" fill="#1e1045"/>
      <path id="Fill_17" data-name="Fill 17" d="M0,.767H50.213V0H0Z" transform="translate(41.954 32.877)" fill="#1e1045"/>
      <path id="Fill_19" data-name="Fill 19" d="M0,.767H10.451V0H0Z" transform="translate(99.437 32.877)" fill="#1e1045"/>
      <path id="Fill_20" data-name="Fill 20" d="M4.762,8.547A4.626,4.626,0,0,1,3.7,8.411a6.128,6.128,0,0,1-1.08-.367,5.09,5.09,0,0,1-.942-.557,4.142,4.142,0,0,1-.863-.877,4.5,4.5,0,0,1-.6-1.1A3.5,3.5,0,0,1,0,4.344,4.025,4.025,0,0,1,.213,3.035a3.9,3.9,0,0,1,.551-1.06,4.108,4.108,0,0,1,.779-.791A4.819,4.819,0,0,1,2.4.64,5.545,5.545,0,0,1,3.609.19,6,6,0,0,1,5.119,0,5.014,5.014,0,0,1,6.468.186a5.262,5.262,0,0,1,1.28.545,4.541,4.541,0,0,1,1.073.874A3.932,3.932,0,0,1,9.56,2.783a3.975,3.975,0,0,1,.276,1.461,3.808,3.808,0,0,1-.192,1.2,4.138,4.138,0,0,1-.493,1,4.524,4.524,0,0,1-.643.766,3.816,3.816,0,0,1-.66.5,4.733,4.733,0,0,1-.98.48,5.781,5.781,0,0,1-1.052.27A6.389,6.389,0,0,1,4.762,8.547ZM5.045.662a2.4,2.4,0,0,0-2.2,1.773,7.285,7.285,0,0,0-.174,2.779c.28,1.752,1.065,2.6,2.4,2.6A3.5,3.5,0,0,0,5.461,7.8,1.716,1.716,0,0,0,6.7,6.918l.059-.083a5.671,5.671,0,0,0,.6-2.893A4.453,4.453,0,0,0,7.014,1.8,2.273,2.273,0,0,0,5.5.708,2.378,2.378,0,0,0,5.045.662Z" transform="translate(89.714 41.013)" fill="#1e1045"/>
      <path id="Fill_21" data-name="Fill 21" d="M5.212,14.444A9.421,9.421,0,0,1,2.824,14.2C1.091,13.735-.018,12.82,0,11.865c.012-.851.558-1.472,1.621-1.847a5.117,5.117,0,0,1,.674-.181c.181-.039.3-.064.33-.11A.136.136,0,0,0,2.651,9.6c-.039-.1-.246-.145-.508-.2a3.5,3.5,0,0,1-.784-.248A1.346,1.346,0,0,1,.542,7.9a1.379,1.379,0,0,1,.681-1.2,11.526,11.526,0,0,1,1.1-.437c.21-.074.375-.133.463-.177.063-.033.094-.07.091-.108,0-.057-.085-.118-.215-.164l-.111-.039A2.851,2.851,0,0,1,1.01,4.786,2.638,2.638,0,0,1,.837,2.1,3.8,3.8,0,0,1,2.967.2,3.71,3.71,0,0,1,4.227,0h.018L9.721.019,9.887.2l-.04,1.212H8.107a.123.123,0,0,0-.115.07c-.021.037-.038.083-.019.1a2.567,2.567,0,0,1,.9,2.458,3.6,3.6,0,0,1-2.736,2.1,5.708,5.708,0,0,1-1.367.134c-.36,0-.692-.019-.91-.032-.038,0-.077,0-.115,0a1.137,1.137,0,0,0-1.212.784c-.031.344.3.611.878.716.412.074.885.127,1.386.182,1.593.176,3.4.376,4.39,1.379a2.291,2.291,0,0,1,.244,3.144,4.818,4.818,0,0,1-2.278,1.668A6.573,6.573,0,0,1,5.212,14.444Zm-.5-4.567a4.076,4.076,0,0,0-2.736.708.477.477,0,0,0-.116.407c.279,1.442,2.036,1.814,3.333,1.969A5.372,5.372,0,0,0,5.83,13c1.283,0,2.606-.383,2.651-1.115a1.3,1.3,0,0,0-.375-1A5.074,5.074,0,0,0,4.714,9.877ZM4.742.66a1.936,1.936,0,0,0-1.3.516,2.842,2.842,0,0,0-.6,2.515,3.127,3.127,0,0,0,.5,1.2,1.877,1.877,0,0,0,1.475.7,1.583,1.583,0,0,0,.894-.262,2.8,2.8,0,0,0,.625-3.673A1.824,1.824,0,0,0,4.742.66Z" transform="translate(59.772 41)" fill="#1e1045"/>
      <path id="Fill_22" data-name="Fill 22" d="M.245,3.942A4.339,4.339,0,0,0,2.54,7.252c.591.377,1.33.825,1.913,1.116,1.441.717,2.584,2.133,1,3.348a2.817,2.817,0,0,1-2.159.392A6.173,6.173,0,0,1,2.219,11.7C.675,11.123.743,9.192.564,8.992.479,8.9.067,8.939.011,8.939c-.037,0,.031,3.729,0,3.937-.01.084.332.055.423.031.3-.079.23-.683.355-.667,1.155.136,1.809.851,3.671.681a5.471,5.471,0,0,0,1.1-.221,3.948,3.948,0,0,0,1.812-1.2,3.818,3.818,0,0,0,.188-4.108A3.805,3.805,0,0,0,6.7,6.468C5.491,5.425,2.781,4.721,2.136,3.452.642.5,6.215-.1,6.972,3.122c.008.031-.011.306.026.307a1.85,1.85,0,0,1,.41.015c.126.057.073-.3.073-.422L7.487.255c0-.375-.346-.271-.512-.1a1.149,1.149,0,0,1-.551.306A1.722,1.722,0,0,1,5.5.384a4.573,4.573,0,0,0-3.36.148A3.193,3.193,0,0,0,.245,3.942" transform="translate(42.006 36.59)" fill="#1e1045"/>
      <path id="Fill_23" data-name="Fill 23" d="M4.323,8.663h0a4.852,4.852,0,0,1-1.64-.289,4.035,4.035,0,0,1-1.366-.8A3.653,3.653,0,0,1,.406,6.3,4.827,4.827,0,0,1,0,4.514,4.394,4.394,0,0,1,2.657.367,4.476,4.476,0,0,1,4.425,0,4.093,4.093,0,0,1,8.464,3.308c0,.021.006.043.01.065.014.082.029.167-.016.219a.192.192,0,0,1-.154.051H2.488a4.985,4.985,0,0,0,.276,1.847A2.854,2.854,0,0,0,5.3,7.575a4.533,4.533,0,0,0,3.1-1.739A.092.092,0,0,1,8.469,5.8a.04.04,0,0,1,.035.02c.028.045.007.148-.057.276A4.587,4.587,0,0,1,4.323,8.663Zm-.012-8c-.031,0-.061,0-.091,0-1.5.139-1.752,2.169-1.738,2.471,0,.013,0,.021,0,.021l3.383-.012c.133,0,.206-.114.205-.32C6.072,2.182,5.326.663,4.31.664Z" transform="translate(50.729 40.931)" fill="#1e1045"/>
      <path id="Fill_24" data-name="Fill 24" d="M10.739,8.205a27.559,27.559,0,0,1-3.6.163V6.8a1.61,1.61,0,0,0-.015-.174C5.839,8.216,3.731,8.835,2.388,8.134A2.171,2.171,0,0,1,1.118,6.452l.01-4.243c0-.654,0-.967-.126-1.1C.849.942.8.87,0,.806L.01.353C.963.281,2.91.016,3.512,0l0,4.248c0,1.392.093,2.441.631,2.844.921.692,2.848-.409,2.978-1.442a23.774,23.774,0,0,0,.122-3.041A3.372,3.372,0,0,0,6.966.929C6.837.79,6.622.824,5.78.745L5.843.271C7.009.167,8.3.169,9.406.009l.031,5.448a2.979,2.979,0,0,0,.344,1.958,1.525,1.525,0,0,0,.847.4c.214.046.147.144.111.388" transform="translate(70.372 40.974)" fill="#1e1045"/>
      <path id="Fill_25" data-name="Fill 25" d="M.037.8C.068,1.129,1.508.2,1.508,2.5V6.582c0,1.432-1.4,1.149-1.387,1.368,0,.124-.029.361.05.361l5.051,0c.036,0,.085-.4,0-.412-1.072-.094-1.353-.807-1.353-1.612V3.476a1.861,1.861,0,0,1,1.164-1.2c1.873-.589,2.047.758,2.433.746.184-.893.56-1.941.537-2.176a.918.918,0,0,0-.987-.8C5.442,0,4.563,1.333,3.855,2.57,3.844,2.591,3.985,0,3.931,0L0,.43Z" transform="translate(81.581 40.953)" fill="#1e1045"/>
      <path id="Fill_26" data-name="Fill 26" d="M.211,2.673C.353,4.449,1.93,4.627,3.49,5.245c1.843.73,1.654,1.9.728,2.409a2.31,2.31,0,0,1-2.9-.687C.9,6.423.724,5.764.458,5.511.392,5.447.073,5.475.032,5.475S.02,8.392,0,8.529C-.036,8.777.727,8,.841,8c.957.013,1.992.643,2.983.408C5.717,7.961,6.262,7,6.291,5.629A2.753,2.753,0,0,0,4.264,3.169a8.942,8.942,0,0,1-2.185-.986C.947,1.266,2.4.419,3.8.872c1.637.53,1.56,1.608,1.59,1.609a2.149,2.149,0,0,1,.348-.008A12.836,12.836,0,0,0,5.78.13c0-.17-.157-.146-.276-.078-.037.022-.106.1-.136.116a1.649,1.649,0,0,1-1.1.03A4.13,4.13,0,0,0,1.656.264,2.349,2.349,0,0,0,.211,2.673" transform="translate(100.136 40.979)" fill="#1e1045"/>
      <path id="Fill_27" data-name="Fill 27" d="M39.257,22.045c-.127-.168-.444-.031-.444-.031l-5.036,1.864A18.01,18.01,0,0,0,32.421,21.2l1.633-4.446s.2-.444.017-.551-.5.184-.5.184L30.61,18.813a12.694,12.694,0,0,0-4.072-2.938,12.911,12.911,0,0,0-1.816-.653L23.8,11.7s-.078-.351-.317-.351-.3.332-.3.332L22.6,14.793a15.807,15.807,0,0,0-2-.128,14.291,14.291,0,0,0-5.895,1.189,12.644,12.644,0,0,0-2.075,1.178c-.108.075-.209.157-.315.237-.611-1.573-1.094-2.855-1.183-3.243a5.772,5.772,0,0,0,1.227-2.186,3.739,3.739,0,0,0-.087-2.36,6.694,6.694,0,0,1-.531-1.5.952.952,0,0,1,.289-.6.671.671,0,0,0-.619-.6,3.553,3.553,0,0,0-.741.055c-.064-.113-.188-.093-.094-.494.141-.607,1.308-.894,2.261-1.262a2.786,2.786,0,0,0,1.926-2.733,2.214,2.214,0,0,0-1.246-2.1,2.894,2.894,0,0,1-1.142,1.184,2.1,2.1,0,0,1-1.366.214A1.558,1.558,0,0,0,10.212,0,2.053,2.053,0,0,1,8.395.725C7.408.7,7.344.464,5.958.467A3.584,3.584,0,0,0,2.15,3.4a3.95,3.95,0,0,0,.637,2.579,6.467,6.467,0,0,0-.927.9.751.751,0,0,0-1-.079A1.335,1.335,0,0,1,.9,7.643a11.029,11.029,0,0,0-.885,2.811A3.516,3.516,0,0,0,1.9,14.024a.868.868,0,0,0-.1.9.7.7,0,0,0,.678.352.927.927,0,0,0-.166.983c.166.409.637,1.006,1.048,1.006a7.342,7.342,0,0,0,.226,1.5,1.544,1.544,0,0,0-.267.963,1.033,1.033,0,0,0,.759,1.006,2.614,2.614,0,0,0,.326.683,2.389,2.389,0,0,0,.579.57,1.923,1.923,0,0,0,1.07.372,4.249,4.249,0,0,0,.958-.042c.01.117.049,1.2.095,2.409A29.022,29.022,0,0,0,5.557,34.5h0c0,6.4,1.828,12.109,5.32,15.782a3.528,3.528,0,0,0,.761.611A39.629,39.629,0,0,1,14.392,46.9a14.136,14.136,0,0,1,1.433-1.558q1.228-1.063,2.384-1.9A20.011,20.011,0,0,1,25.14,40.4a28.169,28.169,0,0,0-6.6,4.2,24.4,24.4,0,0,0-5.773,6.959,2.729,2.729,0,0,0,1.4.628,37.432,37.432,0,0,1,5.066-6.558,24.008,24.008,0,0,1,16.118-6.57,33.632,33.632,0,0,0,.3-4.562,31.3,31.3,0,0,0-.807-7.27l4.247-4.718s.293-.3.168-.463" transform="translate(0.726 0)" fill="#1e1045"/>
      <path id="Fill_28" data-name="Fill 28" d="M3.1,4.738a3.259,3.259,0,0,0-1.46-.45A2.774,2.774,0,0,0,.186,4.7a.512.512,0,0,1-.124-.658c.119-.288.287-.332.287-.332L.195,1.026a7.285,7.285,0,0,1,.959-.6A.412.412,0,0,0,1.454,0,5.268,5.268,0,0,1,2.548,1.109a2.145,2.145,0,0,1,.411,1.168A7.042,7.042,0,0,1,2.9,3.755c.168.144.329.265.349.492a.826.826,0,0,1-.143.491" transform="translate(5.298 15.174)" fill="#fff"/>
      <path id="Fill_29" data-name="Fill 29" d="M1.009,5.079A5.147,5.147,0,0,0,0,2.83L6.393,0Z" transform="translate(31.926 23.205)" fill="#fff"/>
      <path id="Fill_30" data-name="Fill 30" d="M0,0,5.409,4.9A3.892,3.892,0,0,0,3.888,6.628Z" transform="translate(15.403 17.71)" fill="#fff"/>
      <path id="Fill_31" data-name="Fill 31" d="M2.079,1a1.851,1.851,0,0,0-.315.808,2.217,2.217,0,0,0,.026.83L.133,1.5A12.612,12.612,0,0,0,.024.143C.019.109.009.047,0,0Z" transform="translate(16.489 26.418)" fill="#fff"/>
      <path id="Fill_32" data-name="Fill 32" d="M2.791,15.984c-.1-.184-.577-10.156-.6-10.506l.534-.388v-.1A1.358,1.358,0,0,1,1.743,4.6L1.6,1.54A2.415,2.415,0,0,1,.308,1.125.841.841,0,0,1,.142,0,3.771,3.771,0,0,0,1.867.411c.142,0,.444.322.616.392.2.074.526.257.683.326.139.06.226.388.266.512S8.42,14.587,8.5,14.732s.373,2.3.39,2.461a15.317,15.317,0,0,0,.9,2.052,3.994,3.994,0,0,0-2.616,1.221,8.607,8.607,0,0,0-1.8,3.544c-.061-.451-2.484-7.842-2.588-8.026" transform="translate(6.638 11.911)" fill="#fff"/>
      <path id="Fill_33" data-name="Fill 33" d="M3.642,8.028a12.5,12.5,0,0,1-1.417,4.9C1.76,13.719.454,15.312,0,15.914a14.1,14.1,0,0,0,.842-5.208A30.193,30.193,0,0,1,.775,5.1,6.429,6.429,0,0,1,2.915,1,3.987,3.987,0,0,1,6.756.168L8.278,3.027a3.458,3.458,0,0,0-2.607.532C4.32,4.6,3.866,5.99,3.642,8.028" transform="translate(12.074 32.135)" fill="#fff"/>
      <path id="Fill_34" data-name="Fill 34" d="M0,7.987A25.991,25.991,0,0,0,.992,3.993,5.273,5.273,0,0,1,2.544.49,2.549,2.549,0,0,1,4.513.049l1.718,3.5a1.031,1.031,0,0,0,1,.478C5.616,4.552,1.552,6.483,0,7.987" transform="translate(15.864 36.06)" fill="#fff"/>
      <path id="Fill_35" data-name="Fill 35" d="M.175,1.268A1.077,1.077,0,0,0,.151,2.4C.326,2.73,1.236,4.41,1.236,4.41a10.365,10.365,0,0,0,.783,1.637c.494,0,1.028-.013,1.593,0C3.01,4.7,1.635,2.1,1.635,2.1L1.537,0A5.3,5.3,0,0,0,.175,1.268" transform="translate(30.328 31.606)" fill="#fff"/>
      <path id="Fill_36" data-name="Fill 36" d="M0,8.55a6.423,6.423,0,0,1,2.7.266L1.146,0Z" transform="translate(23.168 13.186)" fill="#fff"/>
      <path id="Fill_37" data-name="Fill 37" d="M3.432,1.641c-.04-.123-.126-.451-.266-.51C3.009,1.06,2.681.877,2.484.8c-.17-.069-.473-.39-.617-.39A3.761,3.761,0,0,1,.141,0,.841.841,0,0,0,.308,1.125,2.4,2.4,0,0,0,1.6,1.54L1.744,4.6a1.343,1.343,0,0,0,.986.39v.1L2.2,5.478c.017.35.491,10.321.594,10.506S5.318,23.56,5.379,24.01a8.552,8.552,0,0,1,1.8-3.545A3.99,3.99,0,0,1,9.8,19.246a15.39,15.39,0,0,1-.9-2.053c-.017-.163-.306-2.319-.388-2.461S3.472,1.766,3.432,1.641" transform="translate(6.638 11.91)" fill="#fff"/>
      <path id="Fill_38" data-name="Fill 38" d="M2.2.91A3.192,3.192,0,0,1,4.584,1.8,1.294,1.294,0,0,0,4.11.557,3.134,3.134,0,0,0,2.119,0,2.765,2.765,0,0,0,.389.543,1.159,1.159,0,0,0,.032,1.756C.155,1.368,1.045.906,2.2.91" transform="translate(4.713 10.196)" fill="#fff"/>
      <path id="Fill_39" data-name="Fill 39" d="M0,2.175A2.28,2.28,0,0,0,.361,3.594c.141.184.475.546.719.531.349-.02.678-.688,1.5-.657.531.02.88.772,1.333.8.349.024.532-.325.888-.363.3-.032.407.118.591.3a1.96,1.96,0,0,1,.761-.82c.553-.411,2.443-.8,3.247-1.518A1.533,1.533,0,0,0,9.768.4,2.834,2.834,0,0,1,7.8,1.313,4.968,4.968,0,0,1,6.052.968,1.04,1.04,0,0,0,6.141,0,5.243,5.243,0,0,1,4.265.314C3.815.314,2.931.132,2.247.169A2.212,2.212,0,0,0,0,2.175" transform="translate(4.403 1.611)" fill="#fff"/>
      <path id="Fill_40" data-name="Fill 40" d="M4.948,2.072C8.2,2.134,9.66,3.631,9.7,4.861a2.279,2.279,0,0,0,.121-1.129c-.016-.326-.51-1.251-.533-1.557a2.594,2.594,0,0,1,.125-.8c-.207.039-.926.325-1.234.081-.33-.265-.1-.923-.535-1.086S6.54.718,6.106.656,5.306,0,4.856,0s-.68.552-1.234.677c-.429.1-.946-.163-1.2-.144-.28.019-.446.238-.572.506A.683.683,0,0,1,1.3,1.5c-.261.064-.636-.164-.822-.123A1.364,1.364,0,0,1,.565,2.441,5.088,5.088,0,0,0,0,3.862,2.083,2.083,0,0,0,.253,4.9c-.084-1.744,1.861-2.884,4.7-2.83" transform="translate(2.047 6.372)" fill="#fff"/>
      <path id="Fill_41" data-name="Fill 41" d="M1.2,2.254a1.952,1.952,0,0,0-.927.795,2.084,2.084,0,0,0,.594.988,1.936,1.936,0,0,1,.5-.816,3.674,3.674,0,0,1,.574-.326.339.339,0,0,0,.226-.351.92.92,0,0,0-.108-.457c.163-.019.467.005.573-.141a.893.893,0,0,0,.151-.509c0-.187-.083-.227-.266-.248a7.4,7.4,0,0,0-.991-.013S1.939.962,2.062.9A.377.377,0,0,0,2.246.613,1.8,1.8,0,0,0,2.207,0a4.669,4.669,0,0,0-2,.817l.226.559L.029,1.358a1.683,1.683,0,0,0,.1.958A4.954,4.954,0,0,1,1.2,2.254" transform="translate(3.751 12.406)" fill="#fff"/>
      <path id="Fill_42" data-name="Fill 42" d="M4.987,17.155h0l-.615-2.112,1.409-1.973a.44.44,0,0,1-.056.021,10.313,10.313,0,0,1-1.858.545l-.025,0a1.482,1.482,0,0,1-.19.013.683.683,0,0,1-.737-.561,4.161,4.161,0,0,1-.118-.65c0-.159.129-.362.275-.362a.154.154,0,0,1,.031,0,.78.78,0,0,0,.146.014.512.512,0,0,0,.286-.074l.3-.4c-.111-.014-.231-.037-.337-.058a2.164,2.164,0,0,0-.319-.048,1.126,1.126,0,0,0-.314.088c-.08.029-.163.06-.245.083-.081-.059-.32-.236-.253-.47H3.994l.03-.189a5.6,5.6,0,0,0-1.167-.392H2.829a.545.545,0,0,0-.434.177v-.306l.925-.778-.957-.391-.524.093.34-2.155L2,6.907l-.934.559L1.037,6.244c.028-.232.468-.658.814-.857l-.062-.742c-.1.063-.212.119-.316.174a1.907,1.907,0,0,0-.713.525A2.013,2.013,0,0,0,.3,6.511,1.153,1.153,0,0,1,.02,5.506,1.755,1.755,0,0,1,.7,4.419a3.319,3.319,0,0,1-.029-1.57A3.911,3.911,0,0,1,4.7,0H4.72A9.09,9.09,0,0,1,9.593,2a8.622,8.622,0,0,1,2.785,2.882l.01.051a1.011,1.011,0,0,1,.023.5c-.183-.244-1.5-1.5-1.513-1.508l-.83,1.053,1.571,1.378a1.947,1.947,0,0,1-1.064.326,2.339,2.339,0,0,1-.292-.019c-.727-.09-2.343-1.1-2.371-1.906A9.768,9.768,0,0,0,4.6,4.05H4.519a7.884,7.884,0,0,0-1.972.307.5.5,0,0,1-.159.027.861.861,0,0,1-.4-.13c-.046-.024-.094-.049-.142-.07l-.1.061.611.941a.24.24,0,0,0,.111.023,1.465,1.465,0,0,0,.39-.092,3.889,3.889,0,0,1,.517-.138,4.025,4.025,0,0,1,.709-.06,4.338,4.338,0,0,1,2.1.515A22.73,22.73,0,0,1,8.74,7.466a1.125,1.125,0,0,0,.755.331.533.533,0,0,0,.358-.117.572.572,0,0,1,.359-.151.214.214,0,0,1,.165.062.192.192,0,0,1,.041.155c-.006.059-.017.12-.028.179-.041.221-.079.429.143.524a.319.319,0,0,0,.132.03.518.518,0,0,0,.32-.172,1.405,1.405,0,0,1,.13-.105.57.57,0,0,1,.316-.109.544.544,0,0,1,.27.079,4.043,4.043,0,0,1-.894,1.077,1.8,1.8,0,0,1-1,.431A.6.6,0,0,1,9.6,9.648l-.214.526,1.541,3.54c.152.306.257.532.341.714a7.5,7.5,0,0,0,.446.861,34.661,34.661,0,0,0-6.73,1.866ZM4.636,5.914a1.936,1.936,0,0,0-.4.041,5.5,5.5,0,0,0-1.314.526v.553a2.2,2.2,0,0,1,.862.709l.486-.123-.208-.338a.017.017,0,0,1,.007,0,2.036,2.036,0,0,1,.668-.15c.043,0,.086,0,.129,0a1.4,1.4,0,0,1,.89.245l1.061-.248L6.954,6.9A4.154,4.154,0,0,0,4.636,5.914ZM7.571,1.741,6.985,3.248a15.522,15.522,0,0,1,2.4,1.208l.77-1.083A21.724,21.724,0,0,0,7.571,1.741Zm-5.453.124a2.468,2.468,0,0,0-.8,2.186,7.732,7.732,0,0,1,1.324-.987Zm2.627.891h0a3.134,3.134,0,0,1,1.438.25l.278-1.6A4.4,4.4,0,0,0,4.611,1a3.2,3.2,0,0,0-1.725.461L3.38,2.881A6.886,6.886,0,0,1,4.745,2.756Z" transform="translate(19.148 22.635)" fill="#fff"/>
      <path id="Fill_43" data-name="Fill 43" d="M0,5.406A12.207,12.207,0,0,1,2.208,6.955L5.474,0Z" transform="translate(28.327 17.675)" fill="#fff"/>
    </g>
  </g>
</svg>
