<svg id="Icons_12_Month_Rate_" data-name="Icons/12 Month Rate " xmlns="http://www.w3.org/2000/svg" xmlns:xlink="http://www.w3.org/1999/xlink" width="24" height="24" viewBox="0 0 24 24">
  <defs>
    <clipPath id="clip-path">
      <path id="Mask" d="M14.669,22.981l-3.9-6.224A8.508,8.508,0,0,1,.645,5.291,8.583,8.583,0,0,1,6.549.248a8.333,8.333,0,0,1,7.728,2.028A8.509,8.509,0,0,1,15.854,12.82l0,0c-.029.05-.057.094-.085.141s-.045.076-.068.113a7.1,7.1,0,0,1-.412.625,8.477,8.477,0,0,1-1.6,1.591v0l-.015.015-.139-.2h0l-.28-.415a.669.669,0,0,1,.1-.868,7.2,7.2,0,0,0-.008-10.578,6.982,6.982,0,0,0-6.474-1.7A7.194,7.194,0,0,0,2.347,12.225a7.2,7.2,0,0,0,8.494,3.105.671.671,0,0,1,.788.277l4.163,6.64a.947.947,0,0,0,.911.408,1.416,1.416,0,0,0,1.121-.694.564.564,0,0,0-.082-.613l-3.56-5.287,1.031-.87,3.633,5.394a1.9,1.9,0,0,1,.194,1.942,2.731,2.731,0,0,1-2.228,1.466c-.07.005-.142.008-.212.008A2.282,2.282,0,0,1,14.669,22.981ZM10.957,5.476a4.1,4.1,0,0,0-2.021-.832l.176-1.329a5.4,5.4,0,0,1,2.671,1.107,5.817,5.817,0,0,1,2.131,4.163L12.579,8.7A4.44,4.44,0,0,0,10.957,5.476Z" fill="#13112b"/>
    </clipPath>
  </defs>
  <rect id="Icons_Search_background" data-name="Icons/Search background" width="24" height="24" fill="none"/>
  <g id="Color_Liberty_Blue" data-name="Color/Liberty Blue" transform="translate(2)">
    <path id="Mask-2" data-name="Mask" d="M14.669,22.981l-3.9-6.224A8.508,8.508,0,0,1,.645,5.291,8.583,8.583,0,0,1,6.549.248a8.333,8.333,0,0,1,7.728,2.028A8.509,8.509,0,0,1,15.854,12.82l0,0c-.029.05-.057.094-.085.141s-.045.076-.068.113a7.1,7.1,0,0,1-.412.625,8.477,8.477,0,0,1-1.6,1.591v0l-.015.015-.139-.2h0l-.28-.415a.669.669,0,0,1,.1-.868,7.2,7.2,0,0,0-.008-10.578,6.982,6.982,0,0,0-6.474-1.7A7.194,7.194,0,0,0,2.347,12.225a7.2,7.2,0,0,0,8.494,3.105.671.671,0,0,1,.788.277l4.163,6.64a.947.947,0,0,0,.911.408,1.416,1.416,0,0,0,1.121-.694.564.564,0,0,0-.082-.613l-3.56-5.287,1.031-.87,3.633,5.394a1.9,1.9,0,0,1,.194,1.942,2.731,2.731,0,0,1-2.228,1.466c-.07.005-.142.008-.212.008A2.282,2.282,0,0,1,14.669,22.981ZM10.957,5.476a4.1,4.1,0,0,0-2.021-.832l.176-1.329a5.4,5.4,0,0,1,2.671,1.107,5.817,5.817,0,0,1,2.131,4.163L12.579,8.7A4.44,4.44,0,0,0,10.957,5.476Z" fill="#13112b"/>
    <g id="Color_Liberty_Blue-2" data-name="Color/Liberty Blue" clip-path="url(#clip-path)">
      <g id="Color_Liberty_Blue-3" data-name="Color/Liberty Blue" transform="translate(-41 -38)">
        <rect id="Rectangle" width="100" height="100" fill="#1a1446"/>
      </g>
    </g>
  </g>
</svg>
