<svg id="Group_3" data-name="Group 3" xmlns="http://www.w3.org/2000/svg" width="64" height="64" viewBox="0 0 64 64">
  <circle id="Oval" cx="32" cy="32" r="32" fill="#fff"/>
  <g id="Group" transform="translate(16 18.4)">
    <g id="Group_7" data-name="Group 7">
      <path id="Combined_Shape" data-name="Combined Shape" d="M3.012,27.2A3.02,3.02,0,0,1,0,24.179V8.79A3.019,3.019,0,0,1,3.012,5.77H28.988A3.019,3.019,0,0,1,32,8.79v4.336H23.31v2.038a3.02,3.02,0,0,1-3.012,3.02H11.879a3.02,3.02,0,0,1-3.012-3.02V13.127H1.887V24.179a1.129,1.129,0,0,0,1.125,1.129H28.988a1.129,1.129,0,0,0,1.125-1.129v-8.86H32v8.86A3.02,3.02,0,0,1,28.988,27.2Zm7.742-12.036a1.128,1.128,0,0,0,1.125,1.128H20.3a1.128,1.128,0,0,0,1.125-1.128V13.127H10.754ZM1.887,8.79v2.444H30.113V8.79a1.128,1.128,0,0,0-1.125-1.128H3.012A1.128,1.128,0,0,0,1.887,8.79ZM21.508,4.121V2.274a.547.547,0,0,0-.022-.187c-.05-.04-.271-.128-1.1-.128H12.02c-.824,0-1.046.087-1.1.139a1.151,1.151,0,0,0-.014.176V4.121H9.025V2.274C9.025,0,11.2,0,12.02,0h8.369c.82,0,3,0,3,2.274V4.121Z" transform="translate(0 0)" fill="#1a1446"/>
    </g>
  </g>
</svg>
