<svg id="Group_7_Copy_2" data-name="Group 7 Copy 2" xmlns="http://www.w3.org/2000/svg" xmlns:xlink="http://www.w3.org/1999/xlink" width="44" height="44" viewBox="0 0 44 44">
  <defs>
    <clipPath id="clip-path">
      <path id="Mask" d="M11.734,26.392l1.253-1.254a11.45,11.45,0,0,1-10-8.342l1.559-.453A9.825,9.825,0,0,0,13.012,23.5L11.627,22.12l1.149-1.15,3.339,3.337-3.232,3.232Zm4.908-3.4a9.824,9.824,0,0,0,7.18-8.219L22.6,16.04l-1.172-1.126,3.167-3.3L28,14.889l-1.128,1.173-1.406-1.353a11.448,11.448,0,0,1-8.35,9.834ZM0,12.268l1.171-1.127,1.3,1.352a11.443,11.443,0,0,1,8.1-9.824l.475,1.552a9.822,9.822,0,0,0-6.927,8.17l1.322-1.272,1.128,1.173-3.4,3.27ZM14.618,3.9,16.142,5.42l-1.15,1.15L11.76,3.337,15.1,0l1.149,1.15L15.094,2.3A11.449,11.449,0,0,1,25,10.516l-1.56.453A9.823,9.823,0,0,0,14.618,3.9Z" transform="translate(0)" fill="#13112b"/>
    </clipPath>
  </defs>
  <circle id="Oval" cx="22" cy="22" r="22" fill="#f5f5f5"/>
  <g id="Icons_People" data-name="Icons/People" transform="translate(8 8)">
    <rect id="Icons_Process_background" data-name="Icons/Process background" width="28" height="28" transform="translate(0)" fill="none"/>
    <g id="Color_Liberty_Blue" data-name="Color/Liberty Blue" transform="translate(0)">
      <path id="Mask-2" data-name="Mask" d="M11.734,26.392l1.253-1.254a11.45,11.45,0,0,1-10-8.342l1.559-.453A9.825,9.825,0,0,0,13.012,23.5L11.627,22.12l1.149-1.15,3.339,3.337-3.232,3.232Zm4.908-3.4a9.824,9.824,0,0,0,7.18-8.219L22.6,16.04l-1.172-1.126,3.167-3.3L28,14.889l-1.128,1.173-1.406-1.353a11.448,11.448,0,0,1-8.35,9.834ZM0,12.268l1.171-1.127,1.3,1.352a11.443,11.443,0,0,1,8.1-9.824l.475,1.552a9.822,9.822,0,0,0-6.927,8.17l1.322-1.272,1.128,1.173-3.4,3.27ZM14.618,3.9,16.142,5.42l-1.15,1.15L11.76,3.337,15.1,0l1.149,1.15L15.094,2.3A11.449,11.449,0,0,1,25,10.516l-1.56.453A9.823,9.823,0,0,0,14.618,3.9Z" transform="translate(0)" fill="#13112b"/>
      <g id="Color_Liberty_Blue-2" data-name="Color/Liberty Blue" clip-path="url(#clip-path)">
        <g id="Color_Liberty_Blue-3" data-name="Color/Liberty Blue" transform="translate(-43.209 -44.333)">
          <rect id="Rectangle" width="116.667" height="116.667" fill="#1a1446"/>
        </g>
      </g>
    </g>
  </g>
</svg>
