<svg xmlns="http://www.w3.org/2000/svg" xmlns:xlink="http://www.w3.org/1999/xlink" width="42" height="42" viewBox="0 0 42 42">
  <defs>
    <clipPath id="clip-path">
      <path id="Mask" d="M1.37,24H0a9.68,9.68,0,0,1,19.359,0H17.988a8.288,8.288,0,0,0-4.508-7.385l-2.272,2.272a2.137,2.137,0,0,1-3.018,0L5.906,16.6A8.284,8.284,0,0,0,1.371,24h0Zm5.917-7.957L9.16,17.917a.764.764,0,0,0,1.079,0L12.1,16.052a8.3,8.3,0,0,0-4.818-.009Zm-4.125-9.6A6.442,6.442,0,1,1,9.6,12.881,6.449,6.449,0,0,1,3.162,6.443Zm1.371,0A5.071,5.071,0,1,0,9.6,1.371,5.074,5.074,0,0,0,4.532,6.443Z" fill="#13112b"/>
    </clipPath>
  </defs>
  <g id="Grupo_536" data-name="Grupo 536" transform="translate(-163 -541)">
    <circle id="Elipse_2" data-name="Elipse 2" cx="21" cy="21" r="21" transform="translate(163 541)" fill="#f0fbfc"/>
    <g id="Icons_User" data-name="Icons/User" transform="translate(172 550)">
      <rect id="Icons_User_background" data-name="Icons/User background" width="24" height="24" fill="none"/>
      <g id="Color_Liberty_Blue" data-name="Color/Liberty Blue" transform="translate(2)">
        <path id="Mask-2" data-name="Mask" d="M1.37,24H0a9.68,9.68,0,0,1,19.359,0H17.988a8.288,8.288,0,0,0-4.508-7.385l-2.272,2.272a2.137,2.137,0,0,1-3.018,0L5.906,16.6A8.284,8.284,0,0,0,1.371,24h0Zm5.917-7.957L9.16,17.917a.764.764,0,0,0,1.079,0L12.1,16.052a8.3,8.3,0,0,0-4.818-.009Zm-4.125-9.6A6.442,6.442,0,1,1,9.6,12.881,6.449,6.449,0,0,1,3.162,6.443Zm1.371,0A5.071,5.071,0,1,0,9.6,1.371,5.074,5.074,0,0,0,4.532,6.443Z" fill="#13112b"/>
        <g id="Color_Liberty_Blue-2" data-name="Color/Liberty Blue" clip-path="url(#clip-path)">
          <g id="Color_Liberty_Blue-3" data-name="Color/Liberty Blue" transform="translate(-40 -38)">
            <rect id="Rectangle" width="100" height="100" fill="#1a1446"/>
          </g>
        </g>
      </g>
    </g>
  </g>
</svg>
